<?xml version="1.0" encoding="utf-8"?>
<!-- Generator: Adobe Illustrator 15.0.2, SVG Export Plug-In . SVG Version: 6.00 Build 0)  -->
<!DOCTYPE svg PUBLIC "-//W3C//DTD SVG 1.1//EN" "http://www.w3.org/Graphics/SVG/1.1/DTD/svg11.dtd">
<svg version="1.1" id="Layer_1" xmlns="http://www.w3.org/2000/svg" xmlns:xlink="http://www.w3.org/1999/xlink" x="0px" y="0px"
	 width="586.723px" height="177px" viewBox="0 40.296 586.723 177" enable-background="new 0 40.296 586.723 177"
	 xml:space="preserve">
<path stroke="#FFFFFF" stroke-miterlimit="10" d="M224.562,69.836h3.601l2.664,31.968l19.655-32.112h2.809l2.52,32.112
	l19.801-31.968h3.888l-23.399,37.008h-3.097l-2.521-31.464l-19.439,31.464h-2.952L224.562,69.836z"/>
<path stroke="#FFFFFF" stroke-miterlimit="10" d="M292.601,53.997h3.528l-6.12,22.68c0.912-1.055,1.859-2.062,2.844-3.024
	c0.984-0.96,2.027-1.775,3.133-2.448c1.104-0.671,2.314-1.211,3.636-1.62c1.319-0.407,2.747-0.612,4.284-0.612
	c3.646,0,6.562,1.056,8.748,3.168c2.184,2.113,3.275,4.944,3.275,8.496c0,0.817-0.072,1.668-0.216,2.556
	c-0.144,0.889-0.337,1.764-0.575,2.628l-5.473,20.736h-3.527l5.615-21.024c0.191-0.672,0.336-1.428,0.432-2.268
	c0.096-0.839,0.145-1.595,0.145-2.268c0-2.736-0.84-4.896-2.52-6.48c-1.682-1.584-3.985-2.376-6.912-2.376
	c-1.584,0-3.168,0.336-4.752,1.008c-1.584,0.673-3.072,1.62-4.465,2.844c-1.393,1.224-2.628,2.664-3.707,4.32
	c-1.08,1.656-1.885,3.492-2.412,5.508l-5.545,20.736h-3.527L292.601,53.997z"/>
<path stroke="#FFFFFF" stroke-miterlimit="10" d="M331.121,69.836h3.527l-9.863,36.72h-3.527L331.121,69.836z M334.578,55.437h4.391
	l-1.295,4.824h-4.395L334.578,55.437z"/>
<path stroke="#FFFFFF" stroke-miterlimit="10" d="M350.201,107.205c-2.447,0-4.525-0.575-6.229-1.725
	c-1.705-1.15-2.558-2.994-2.558-5.532c0-0.575,0.047-1.186,0.146-1.833c0.096-0.646,0.19-1.209,0.287-1.688l6.264-23.279h-5.326
	l0.863-3.312h5.328l3.168-11.736h3.526l-3.168,11.736h12.673l-0.863,3.312h-12.672l-6.267,23.291
	c-0.097,0.478-0.181,1.003-0.252,1.577c-0.07,0.574-0.106,1.075-0.106,1.504c0,1.53,0.541,2.64,1.621,3.333
	c1.079,0.693,2.53,1.038,4.354,1.038c1.534,0,3.312-0.36,5.327-1.08l-0.938,3.456c-0.961,0.384-1.824,0.636-2.592,0.756
	C352.023,107.144,351.16,107.205,350.201,107.205z"/>
<path stroke="#FFFFFF" stroke-miterlimit="10" d="M373.889,69.836h3.528l-1.801,6.84c0.911-1.104,1.836-2.124,2.771-3.06
	c0.938-0.936,1.92-1.751,2.952-2.448c1.031-0.695,2.16-1.235,3.386-1.62c1.225-0.384,2.578-0.576,4.065-0.576
	c1.633,0,3.084,0.264,4.356,0.792c1.271,0.529,2.34,1.213,3.203,2.052c0.863,0.841,1.56,1.8,2.089,2.88
	c0.526,1.08,0.889,2.172,1.079,3.276c1.681-2.736,3.806-4.919,6.371-6.552c2.568-1.631,5.58-2.448,9.037-2.448
	c1.631,0,3.154,0.288,4.572,0.864c1.414,0.576,2.633,1.38,3.654,2.412c1.02,1.033,1.823,2.257,2.412,3.672
	c0.588,1.417,0.881,2.988,0.881,4.716c0,0.817-0.101,1.668-0.293,2.556c-0.197,0.889-0.418,1.764-0.66,2.628l-5.527,20.736h-3.527
	l5.615-21.024c0.191-0.672,0.336-1.428,0.435-2.268c0.096-0.839,0.143-1.595,0.143-2.268c0-2.736-0.779-4.896-2.34-6.48
	c-1.562-1.584-3.685-2.376-6.371-2.376c-1.488,0-2.988,0.349-4.5,1.044c-1.512,0.696-2.928,1.656-4.248,2.88
	s-2.496,2.664-3.527,4.32c-1.03,1.656-1.812,3.468-2.342,5.436l-5.471,20.736h-3.529l5.617-21.024
	c0.191-0.672,0.336-1.428,0.432-2.268c0.099-0.839,0.146-1.595,0.146-2.268c0-2.736-0.781-4.896-2.343-6.48
	c-1.56-1.584-3.685-2.376-6.37-2.376c-1.488,0-2.988,0.349-4.5,1.044c-1.513,0.696-2.929,1.656-4.248,2.88
	c-1.32,1.224-2.496,2.664-3.527,4.32c-1.032,1.656-1.812,3.468-2.34,5.436l-5.545,20.736h-3.527L373.889,69.836z"/>
<path stroke="#FFFFFF" stroke-miterlimit="10" d="M442.865,107.42c-1.537,0-3.025-0.216-4.465-0.648
	c-1.44-0.432-2.728-1.08-3.854-1.944c-1.129-0.864-2.029-1.932-2.699-3.204c-0.674-1.271-1.01-2.772-1.01-4.5
	c0-2.016,0.408-3.852,1.228-5.508c0.813-1.656,1.952-3.06,3.42-4.212c1.463-1.152,3.215-2.04,5.256-2.664
	c2.039-0.624,4.26-0.936,6.66-0.936c2.639,0,5.192,0.216,7.668,0.648c2.471,0.432,4.616,0.913,6.442,1.44l0.287-1.008
	c0.146-0.528,0.267-1.14,0.359-1.836c0.096-0.695,0.145-1.308,0.145-1.836c0-2.783-0.946-4.919-2.844-6.408
	c-1.896-1.487-4.646-2.232-8.244-2.232c-2.016,0-3.852,0.168-5.508,0.504s-3.373,0.817-5.148,1.44l-0.646-3.168
	c1.824-0.671,3.637-1.188,5.436-1.548c1.802-0.36,3.854-0.54,6.156-0.54c4.512,0,8.016,1.021,10.512,3.06
	c2.496,2.041,3.744,4.836,3.744,8.388c0,0.673-0.061,1.44-0.18,2.304c-0.121,0.864-0.301,1.704-0.539,2.52l-5.617,21.024
	l-3.455-0.019l1.656-6.317c-1.777,2.113-3.877,3.841-6.301,5.184C448.9,106.747,446.08,107.42,442.865,107.42z M443.583,104.108
	c1.729,0,3.457-0.287,5.184-0.86c1.729-0.573,3.351-1.398,4.861-2.474c1.512-1.075,2.818-2.354,3.924-3.835
	c1.104-1.481,1.918-3.154,2.447-5.019l0.865-3.227c-1.873-0.478-3.976-0.884-6.304-1.219c-2.325-0.334-4.856-0.502-7.596-0.502
	c-1.824,0-3.492,0.24-5.004,0.718s-2.809,1.147-3.889,2.007c-1.08,0.861-1.92,1.876-2.521,3.048
	c-0.602,1.171-0.899,2.474-0.899,3.907c0,2.295,0.805,4.11,2.412,5.449C438.675,103.44,440.847,104.108,443.583,104.108z"/>
<path stroke="#FFFFFF" stroke-miterlimit="10" d="M480.304,69.836h3.527l-1.801,6.84c0.912-1.055,1.858-2.063,2.846-3.024
	c0.982-0.96,2.027-1.775,3.131-2.448c1.104-0.671,2.316-1.211,3.637-1.62c1.318-0.407,2.746-0.612,4.283-0.612
	c3.648,0,6.564,1.056,8.748,3.168c2.185,2.113,3.277,4.944,3.277,8.496c0,0.817-0.072,1.668-0.217,2.556
	c-0.146,0.889-0.336,1.764-0.576,2.628l-5.474,20.736h-3.526l5.617-21.024c0.188-0.672,0.334-1.428,0.432-2.268
	c0.096-0.839,0.143-1.595,0.143-2.268c0-2.736-0.84-4.896-2.52-6.48s-3.984-2.376-6.912-2.376c-1.584,0-3.168,0.336-4.752,1.008
	c-1.584,0.673-3.072,1.62-4.463,2.844c-1.396,1.224-2.629,2.664-3.709,4.32s-1.885,3.492-2.412,5.508l-5.543,20.736h-3.529
	L480.304,69.836z"/>
<path stroke="#FFFFFF" stroke-miterlimit="10" d="M231.994,187.493c-3.744,0-7.297-0.602-10.656-1.801
	c-3.36-1.199-6.216-2.854-8.567-4.967l6.768-7.992c1.872,1.681,4.008,2.977,6.408,3.888c2.399,0.913,4.583,1.368,6.552,1.368
	c1.151,0,2.017-0.217,2.592-0.648c0.576-0.432,0.864-1.008,0.864-1.729c0-0.672-0.408-1.26-1.225-1.764
	c-0.817-0.505-2.184-1.141-4.104-1.908c-1.537-0.623-2.977-1.271-4.32-1.943c-1.344-0.671-2.508-1.451-3.492-2.34
	s-1.752-1.908-2.303-3.061c-0.553-1.152-0.828-2.494-0.828-4.031c0-1.92,0.383-3.731,1.151-5.438
	c0.768-1.703,1.872-3.168,3.312-4.393s3.216-2.195,5.328-2.916c2.112-0.721,4.512-1.079,7.201-1.079
	c3.551,0,6.803,0.552,9.756,1.655c2.951,1.104,5.314,2.375,7.092,3.815l-6.553,8.208c-1.68-1.248-3.492-2.255-5.436-3.023
	c-1.944-0.768-3.805-1.151-5.58-1.151c-2.257,0-3.384,0.745-3.384,2.231c0,0.672,0.396,1.248,1.188,1.729
	c0.791,0.479,2.195,1.128,4.211,1.943c1.393,0.576,2.748,1.188,4.068,1.836c1.32,0.647,2.484,1.404,3.492,2.269
	c1.008,0.864,1.811,1.886,2.412,3.062c0.6,1.177,0.9,2.58,0.9,4.211c0,1.873-0.35,3.647-1.045,5.328
	c-0.696,1.682-1.752,3.168-3.168,4.465c-1.416,1.295-3.18,2.314-5.292,3.06S234.777,187.493,231.994,187.493z"/>
<path stroke="#FFFFFF" stroke-miterlimit="10" d="M264.825,133.997h13.68l-6.912,25.704l13.032-12.097h16.488l-17.929,15.983
	l7.633,22.97h-14.616l-4.177-13.824l-5.111,4.535l-2.52,9.289h-13.681L264.825,133.997z"/>
<path stroke="#FFFFFF" stroke-miterlimit="10" d="M302.121,198.292c-2.304,0-4.272-0.252-5.904-0.756
	c-1.631-0.504-3.12-1.188-4.464-2.053l6.12-10.008c1.775,1.297,3.575,1.943,5.399,1.943c0.672,0,1.261-0.097,1.765-0.288
	c0.504-0.19,1.044-0.575,1.62-1.151l-5.04-38.375h13.896l1.584,23.398l13.104-23.398H344.6l-24.119,38.734
	c-1.394,2.207-2.771,4.068-4.142,5.58c-1.366,1.514-2.796,2.736-4.282,3.672c-1.488,0.938-3.037,1.62-4.645,2.053
	C305.804,198.077,304.04,198.292,302.121,198.292z"/>
<g>
	<g>
		<path fill="#33C1FF" d="M78.944,193c31.757-19.323,66.021-35.878,101.157-47.966c22.694-7.807,46.388-12.596,70.019-16.549
			c27.183-4.549,54.619-7.549,82.09-9.694c27.174-2.121,55.199-3.382,82.002-3.585c2.244-0.013,2.613-0.016,1.111-0.008
			c-4.146,0.014,2.315,0.002,2.557,0.003c0.344,0,6.74,0.007,2.342,0c1.854,0.003,3.705,0.007,5.56,0.011
			c3.553,0.008,7.104,0.02,10.653,0.034c-3.883-0.015,1.64,0.009,1.986,0.011c1.635,0.008,3.269,0.018,4.9,0.027
			c2.612,0.015,5.227,0.033,7.84,0.053c-3.092-0.023,1.768,0.015,1.938,0.017c1.441,0.012,2.884,0.026,4.324,0.04
			c4.549,0.042,11.438,0.123,14.031,0.157c20.358,0.275,38.805,0.768,59.205,1.502c8.188,0.295,16.41,0.162,24.602,0.14
			c3.984-0.011,7.969-0.024,11.953-0.092c-1.4,0.024,4.783-0.055,2.016-0.154c-24.217-0.872-48.434-1.423-72.666-1.719
			c-65.471-0.8-131.141-1.622-196.495,2.981c-50.919,3.586-103.363,9.103-152.311,24.315
			c-37.859,11.768-74.502,29.832-108.443,50.252c-0.124,0.074-0.247,0.148-0.37,0.225c0.625-0.38,5.527,0.139,5.857,0.143
			c4.714,0.047,9.429,0.06,14.143,0.06s9.429-0.013,14.143-0.06C73.741,193.135,78.062,193.537,78.944,193L78.944,193z"/>
	</g>
</g>
</svg>
